<svg id="Layer_1" data-name="Layer 1" xmlns="http://www.w3.org/2000/svg" xmlns:xlink="http://www.w3.org/1999/xlink" viewBox="0 0 217.296 168.506"><defs><style>.cls-1,.cls-9{fill:none;}.cls-2{fill:#58595b;}.cls-3{fill:#b2ceda;}.cls-4{fill:#8dc63f;}.cls-5{clip-path:url(#clip-path);}.cls-6{fill:#fff;}.cls-7{fill:#414042;}.cls-8{fill:#1d538e;}.cls-9{stroke:#fff;stroke-miterlimit:10;stroke-width:2px;}.cls-10{fill:#d1d3d4;}</style><clipPath id="clip-path" transform="translate(-9.283 12.561)"><path class="cls-1" d="M48.082,68a68,68,0,1,1,68,68"/></clipPath></defs><title>LMS_logo</title><path class="cls-2" d="M9.283,155.664v-9.343h2v7.592h3.95v1.751Z" transform="translate(-9.283 12.561)"/><path class="cls-2" d="M26.31,155.664l-.588-1.583H21.716l-.588,1.583H18.873l3.6-9.343h2.493l3.6,9.343ZM23.72,148.31l-1.457,4.02h2.913Z" transform="translate(-9.283 12.561)"/><path class="cls-2" d="M38.9,155.664l-4.454-6.093v6.093H32.453v-9.343H34.5l4.328,5.87v-5.87h1.989v9.343Z" transform="translate(-9.283 12.561)"/><path class="cls-2" d="M45.741,155.664v-9.343h3.684c2.928,0,4.959,1.863,4.959,4.665,0,2.83-2.031,4.679-4.945,4.679Zm6.611-4.679a2.727,2.727,0,0,0-2.914-2.914H47.729v5.841h1.7A2.8,2.8,0,0,0,52.352,150.986Z" transform="translate(-9.283 12.561)"/><path class="cls-2" d="M65.382,155.945v-9.9h1.19v9.9Z" transform="translate(-9.283 12.561)"/><path class="cls-2" d="M86.119,155.664v-6.738l-2.634,6.738h-.868l-2.634-6.738v6.738H77.995v-9.343h2.787l2.27,5.841,2.269-5.841h2.8v9.343Z" transform="translate(-9.283 12.561)"/><path class="cls-2" d="M92.577,151a4.882,4.882,0,1,1,4.889,4.833A4.694,4.694,0,0,1,92.577,151Zm7.718,0a2.845,2.845,0,1,0-2.829,3.068A2.825,2.825,0,0,0,100.295,151Z" transform="translate(-9.283 12.561)"/><path class="cls-2" d="M106.709,151.924v-5.6h2.017v5.547a2.192,2.192,0,1,0,4.385,0v-5.547h2.031v5.6c0,2.312-1.373,3.908-4.217,3.908S106.709,154.236,106.709,151.924Z" transform="translate(-9.283 12.561)"/><path class="cls-2" d="M126.476,155.664l-4.454-6.093v6.093h-1.989v-9.343h2.045l4.328,5.87v-5.87H128.4v9.343Z" transform="translate(-9.283 12.561)"/><path class="cls-2" d="M135.216,155.664v-7.592h-2.731v-1.751h7.451v1.751h-2.717v7.592Z" transform="translate(-9.283 12.561)"/><path class="cls-2" d="M149.625,155.664l-.588-1.583H145.03l-.588,1.583h-2.255l3.6-9.343h2.493l3.6,9.343Zm-2.591-7.354-1.457,4.02h2.913Z" transform="translate(-9.283 12.561)"/><path class="cls-2" d="M155.767,155.664v-9.343h1.989v9.343Z" transform="translate(-9.283 12.561)"/><path class="cls-2" d="M169.107,155.664l-4.454-6.093v6.093h-1.989v-9.343h2.045l4.328,5.87v-5.87h1.989v9.343Z" transform="translate(-9.283 12.561)"/><path class="cls-2" d="M182.46,155.945v-9.9h1.19v9.9Z" transform="translate(-9.283 12.561)"/><path class="cls-2" d="M194.429,154.347l1.093-1.555a4.1,4.1,0,0,0,2.97,1.275c1.106,0,1.624-.49,1.624-1.037,0-1.625-5.379-.49-5.379-4.006,0-1.555,1.345-2.843,3.544-2.843a5.2,5.2,0,0,1,3.643,1.3l-1.106,1.485a4.016,4.016,0,0,0-2.718-1.022c-.841,0-1.316.364-1.316.925,0,1.471,5.364.476,5.364,3.964,0,1.709-1.232,3-3.739,3A5.394,5.394,0,0,1,194.429,154.347Z" transform="translate(-9.283 12.561)"/><path class="cls-2" d="M206.534,155.664v-9.343h6.611v1.751h-4.623v1.961h4.525v1.751h-4.525v2.129h4.623v1.751Z" transform="translate(-9.283 12.561)"/><path class="cls-2" d="M224.324,155.664l-.588-1.583h-4.007l-.588,1.583h-2.255l3.6-9.343h2.493l3.6,9.343Zm-2.591-7.354-1.457,4.02h2.913Z" transform="translate(-9.283 12.561)"/><path class="cls-3" d="M184.251,69.5a68,68,0,1,1-68-68A68,68,0,0,1,184.251,69.5Z" transform="translate(-9.283 12.561)"/><path class="cls-4" d="M48.251,69.833a68.308,68.308,0,0,0,1.139,12.345l61.621,6.145,71.4-2.819a67.315,67.315,0,0,0,1.244-24.514H48.842A68.552,68.552,0,0,0,48.251,69.833Z" transform="translate(-9.283 12.561)"/><g class="cls-5"><polygon class="cls-6" points="92.888 66.183 94.557 66.155 72.484 73.055 80.375 73.055 95.268 68.973 93.959 69.784 95.361 69.346 89.811 73.055 94.776 73.055 97.041 71.651 95.93 72.89 97.256 72.004 96.375 73.055 115.055 73.055 114.175 72.004 115.502 72.891 114.39 71.651 116.654 73.055 121.619 73.055 116.069 69.345 117.473 69.784 116.164 68.973 131.055 73.055 138.947 73.055 116.875 66.155 118.543 66.183 117.075 65.78 170.685 64.888 170.685 63.888 117.075 62.996 118.544 62.593 116.875 62.621 168.205 46.577 167.924 45.617 116.163 59.804 117.473 58.992 116.07 59.431 160.626 29.654 160.085 28.814 114.389 57.126 115.502 55.886 114.176 56.771 148.652 15.627 147.897 14.972 112.102 54.866 112.749 53.513 111.698 54.768 133.185 5.502 132.275 5.086 109.096 53.507 109.342 51.976 108.726 53.388 115.413 0.142 114.423 0 105.914 52.989 105.716 51.416 105.518 52.989 97.009 0 96.019 0.142 102.705 53.388 102.089 51.975 102.335 53.506 79.159 5.085 78.249 5.501 99.734 54.768 98.683 53.513 99.33 54.865 63.538 14.969 62.782 15.625 97.257 56.772 95.93 55.886 97.041 57.124 51.348 28.812 50.807 29.652 95.362 59.43 93.959 58.992 95.269 59.804 43.508 45.616 43.226 46.575 94.558 62.621 92.888 62.593 94.357 62.996 40.747 63.888 40.747 64.888 94.357 65.78 92.888 66.183"/></g><polyline class="cls-7" points="65.634 86.885 105.968 30.885 144.634 88.218"/><path class="cls-8" d="M48.751,59.49s-1.167,8.843-.333,11.167,10.667,23.333,27,21.5,28.167-14.833,38.833-14.167,20.167,18.667,39.167,17,31.167-23.679,31.167-23.679-.5-11.154-1.167-11.821c-.3-.3-7.029-.919-10.167,3.667-4.333,6.333-10,12.5-20,12.5-17.5,0-19.333-15.833-38.667-15.667-22,.19-15.345,15.754-35.333,15-17.667-.667-13.436-9.269-19.75-13A18.03,18.03,0,0,0,48.751,59.49Z" transform="translate(-9.283 12.561)"/><path class="cls-8" d="M184.584,71.311c0-6.654-9.667,15.512-31,15.512-21,0-16.5-16.333-39-16.333s-17.5,15.5-34.167,15.167c-20-.4-14.167-15.167-30.167-15.334h-1l-.834.334c0,37.55,29.333,66.833,67.833,66.843C165.589,137.513,184.584,93.157,184.584,71.311Z" transform="translate(-9.283 12.561)"/><path class="cls-9" d="M48.417,69.49c20,0,11.167,16.167,31.167,16.167s12.5-15,35-15,17,15.333,38,15.333c21.333,0,15-16,32-16" transform="translate(-9.283 12.561)"/><path class="cls-6" d="M88.8,90.32h3.978v23.79h7.878v3.978H88.8Z" transform="translate(-9.283 12.561)"/><path class="cls-6" d="M107.181,90.32H111l5.108,14.7h.078l5.07-14.7h3.86v27.768h-3.978V101.2h-.078l-3.938,11.934h-1.989l-3.9-11.934h-.078v16.887h-3.978Z" transform="translate(-9.283 12.561)"/><path class="cls-6" d="M145.478,98.315H141.5v-.9a4.241,4.241,0,0,0-.644-2.359,2.38,2.38,0,0,0-2.165-.995,2.612,2.612,0,0,0-1.346.312,2.314,2.314,0,0,0-.819.8,3.363,3.363,0,0,0-.409,1.131A7.505,7.505,0,0,0,136,97.652a13.765,13.765,0,0,0,.059,1.385,2.449,2.449,0,0,0,.293.975,2.233,2.233,0,0,0,.683.722,6.2,6.2,0,0,0,1.229.624l3.042,1.209a7.573,7.573,0,0,1,2.145,1.189,4.834,4.834,0,0,1,1.268,1.6,6.787,6.787,0,0,1,.6,2.106,21.12,21.12,0,0,1,.156,2.71,14.266,14.266,0,0,1-.352,3.256,6.848,6.848,0,0,1-1.15,2.574,5.522,5.522,0,0,1-2.125,1.7,7.58,7.58,0,0,1-3.238.624,7.1,7.1,0,0,1-2.691-.507,6.49,6.49,0,0,1-4.095-6.084v-1.482h3.979V111.5a3.244,3.244,0,0,0,.644,1.969,2.506,2.506,0,0,0,2.164.877,3.486,3.486,0,0,0,1.58-.292,2.012,2.012,0,0,0,.858-.819,3.355,3.355,0,0,0,.37-1.307,17.1,17.1,0,0,0,.078-1.716,16.615,16.615,0,0,0-.078-1.794,2.841,2.841,0,0,0-.331-1.131,2.021,2.021,0,0,0-.7-.7A9.273,9.273,0,0,0,139.2,106l-2.847-1.17a6.308,6.308,0,0,1-3.452-2.789,9.592,9.592,0,0,1-.877-4.349,10.085,10.085,0,0,1,.429-2.964,6.911,6.911,0,0,1,1.268-2.418,6.046,6.046,0,0,1,2.126-1.619,6.994,6.994,0,0,1,3-.6,6.6,6.6,0,0,1,2.71.546,6.745,6.745,0,0,1,2.106,1.443,6.431,6.431,0,0,1,1.346,2.009,5.833,5.833,0,0,1,.468,2.281Z" transform="translate(-9.283 12.561)"/><path class="cls-9" d="M48.084,59.74c20,0,11.5,15.25,31.5,15.25s12.5-15,35-15,17,15.333,38,15.333c21.333,0,14-15.511,31-15.511" transform="translate(-9.283 12.561)"/><path class="cls-10" d="M111.417,32.323l-7,9.667,2.667.333-10.667,15s4.667-3,4.667-2,9.333-7,9.333-7l-2.667-1,9-19.667Z" transform="translate(-9.283 12.561)"/><polygon class="cls-10" points="112.718 50.801 122.468 64.551 117.968 63.551 129.218 74.301 119.218 70.051 112.718 68.551 115.218 64.801 110.218 57.551 110.968 45.301 112.718 50.801"/></svg>